<svg width="13" height="12" viewBox="0 0 13 12" fill="none" xmlns="http://www.w3.org/2000/svg">
<path d="M5.775 11.9973C5.57111 11.9973 5.40021 11.9283 5.26229 11.7904C5.12437 11.6525 5.05541 11.4816 5.05541 11.2777V6.96012L0.881757 1.63512C0.701858 1.39525 0.674873 1.14339 0.800802 0.879542C0.926731 0.61569 1.14561 0.483765 1.45743 0.483765H11.5318C11.8436 0.483765 12.0625 0.61569 12.1884 0.879542C12.3143 1.14339 12.2873 1.39525 12.1074 1.63512L7.93378 6.96012V11.2777C7.93378 11.4816 7.86482 11.6525 7.7269 11.7904C7.58898 11.9283 7.41807 11.9973 7.21419 11.9973H5.775ZM6.49459 6.4564L10.0566 1.92295H2.9326L6.49459 6.4564Z" fill="#E69143"/>
</svg>
