<svg width="24" height="16" viewBox="0 0 24 16" fill="none" xmlns="http://www.w3.org/2000/svg">
<path d="M2 15.5C1.30964 15.5 0.75 14.9404 0.75 14.25C0.75 13.5596 1.30964 13 2 13H22C22.6904 13 23.25 13.5596 23.25 14.25C23.25 14.9404 22.6904 15.5 22 15.5H2ZM2 9.25C1.30964 9.25 0.75 8.69036 0.75 8C0.75 7.30964 1.30964 6.75 2 6.75H22C22.6904 6.75 23.25 7.30964 23.25 8C23.25 8.69036 22.6904 9.25 22 9.25H2ZM2 3C1.30964 3 0.75 2.44036 0.75 1.75C0.75 1.05964 1.30964 0.5 2 0.5H22C22.6904 0.5 23.25 1.05964 23.25 1.75C23.25 2.44036 22.6904 3 22 3H2Z" fill="#1558FF"/>
</svg>
