<svg width="138" height="39" viewBox="0 0 138 39" fill="none" xmlns="http://www.w3.org/2000/svg">
<path d="M69.7922 9.33168V11.9585H66.8652V25.243H63.2876V11.9585H60.3856V9.33168H69.7922ZM79.918 25.243L79.3676 22.3659H75.74L75.1896 25.243H71.6621L75.2647 9.33168H79.8179L83.5205 25.243H79.918ZM76.2404 19.7641H78.8422L77.5413 13.0343L76.2404 19.7641ZM92.4618 9.33168H96.0393V22.466C96.0393 24.3173 94.9803 25.243 92.8621 25.243H89.5097C87.4082 25.243 86.3575 24.3173 86.3575 22.466V9.33168H89.935V21.9906C89.935 22.4076 90.1518 22.6161 90.5855 22.6161H91.7863C92.2367 22.6161 92.4618 22.4076 92.4618 21.9906V9.33168ZM103.435 19.2887V25.243H99.8823V9.33168H106.437C108.538 9.33168 109.589 10.249 109.589 12.0836V16.5368C109.589 18.0045 108.922 18.8885 107.588 19.1887L110.39 25.243H106.562L104.06 19.2887H103.435ZM103.435 11.9585V16.7619H105.361C105.595 16.7619 105.761 16.7202 105.862 16.6369C105.962 16.5368 106.012 16.3783 106.012 16.1615V12.584C106.012 12.167 105.795 11.9585 105.361 11.9585H103.435ZM119.315 9.33168H122.892V22.466C122.892 24.3173 121.833 25.243 119.715 25.243H116.363C114.261 25.243 113.21 24.3173 113.21 22.466V9.33168H116.788V21.9906C116.788 22.4076 117.005 22.6161 117.438 22.6161H118.639C119.09 22.6161 119.315 22.4076 119.315 21.9906V9.33168ZM132.264 21.9906V19.1136C132.264 18.8968 132.214 18.7467 132.114 18.6633C132.014 18.5632 131.839 18.5132 131.589 18.5132H129.387C127.419 18.5132 126.435 17.5792 126.435 15.7112V12.0836C126.435 10.249 127.486 9.33168 129.587 9.33168H132.639C134.741 9.33168 135.792 10.249 135.792 12.0836V14.1601H132.214V12.584C132.214 12.167 131.989 11.9585 131.539 11.9585H130.688C130.238 11.9585 130.013 12.167 130.013 12.584V15.386C130.013 15.6028 130.063 15.7612 130.163 15.8613C130.263 15.9447 130.438 15.9864 130.688 15.9864H132.84C133.907 15.9864 134.674 16.2199 135.141 16.6869C135.608 17.1372 135.842 17.8127 135.842 18.7133V22.466C135.842 24.3173 134.791 25.243 132.69 25.243H129.662C127.544 25.243 126.485 24.3173 126.485 22.466V20.4145H130.063V21.9906C130.063 22.4076 130.288 22.6161 130.738 22.6161H131.589C132.039 22.6161 132.264 22.4076 132.264 21.9906Z" fill="#1558FF"/>
<path d="M123.575 33.9451C123.885 33.9451 124.128 33.8005 124.304 33.5113C124.489 33.2221 124.624 32.7573 124.706 32.117C124.799 31.4663 124.794 31.0016 124.691 30.7227C124.588 30.4439 124.386 30.3044 124.087 30.3044C123.787 30.3044 123.55 30.4439 123.374 30.7227C123.198 31.0016 123.064 31.4663 122.971 32.117C122.889 32.7677 122.894 33.2376 122.987 33.5268C123.08 33.8056 123.276 33.9451 123.575 33.9451ZM126.225 30.8002C126.287 31.1617 126.276 31.6006 126.194 32.117C126.121 32.6334 126.003 33.0723 125.837 33.4338C125.682 33.7953 125.486 34.0948 125.249 34.3324C124.804 34.7765 124.2 34.9985 123.436 34.9985C122.3 34.9985 121.644 34.477 121.469 33.4338C121.407 33.0723 121.417 32.6282 121.5 32.1015C121.613 31.1307 121.928 30.4025 122.445 29.9171C122.909 29.473 123.503 29.251 124.226 29.251C125.383 29.251 126.049 29.7674 126.225 30.8002ZM127.415 29.3749H128.685L128.623 30.072H128.654C128.706 30.0411 128.778 29.9791 128.871 29.8861C128.975 29.7932 129.104 29.7002 129.259 29.6073C129.641 29.3697 130.018 29.251 130.39 29.251C130.906 29.251 131.247 29.4059 131.412 29.7157C131.577 30.0256 131.613 30.5058 131.52 31.1565L130.994 34.8591H129.584L130.033 31.5128C130.085 31.1203 130.08 30.857 130.018 30.7227C129.956 30.5781 129.816 30.5058 129.599 30.5058C129.414 30.5058 129.243 30.5626 129.088 30.6762C128.799 30.9035 128.639 31.048 128.608 31.11L128.081 34.8591H126.64L127.415 29.3749ZM135.079 31.6522C135.151 31.1255 135.136 30.764 135.033 30.5678C134.929 30.3716 134.78 30.2734 134.583 30.2734C134.397 30.2734 134.206 30.3767 134.01 30.5833C133.824 30.7795 133.695 31.1358 133.623 31.6522H135.079ZM134.397 33.8986C134.852 33.8986 135.306 33.7695 135.761 33.5113L135.916 34.4718C135.668 34.6577 135.255 34.8075 134.676 34.9211C134.459 34.9727 134.212 34.9985 133.933 34.9985C133.654 34.9985 133.38 34.9469 133.112 34.8436C132.853 34.7403 132.642 34.5802 132.476 34.3634C132.094 33.8676 131.97 33.1705 132.105 32.2719C132.239 31.3011 132.559 30.542 133.065 29.9946C133.54 29.4988 134.098 29.251 134.738 29.251C135.709 29.251 136.282 29.7157 136.458 30.6452C136.551 31.1307 136.515 31.6884 136.349 32.3184C136.318 32.4527 136.293 32.5301 136.272 32.5508H133.499C133.427 33.0259 133.478 33.3719 133.654 33.5887C133.84 33.7953 134.088 33.8986 134.397 33.8986Z" fill="#1558FF"/>
<path d="M19.488 1.35944C23.7528 1.4562 26.1818 2.29419 29.67 4.51817C30.0676 4.77166 30.6014 4.57751 30.733 4.12473C30.8139 3.84641 30.7161 3.54621 30.4788 3.37988C27.8944 1.56889 23.8069 0 19.488 0C8.34857 0 0 9.09227 0 19.504C0 29.9157 8.63646 39 19.488 39C28.9401 39 38.8001 31.739 38.992 19.512C38.992 14.9255 37.5142 11.3348 35.4622 8.35581C35.1503 7.90288 34.4658 8.02969 34.3127 8.55791C34.2531 8.76314 34.2952 8.98265 34.4196 9.15634C35.8932 11.2129 37.6326 15.1469 37.6326 19.512C37.6326 28.8122 30.0357 37.6406 19.488 37.6406C8.73242 37.4726 1.35147 28.8762 1.35145 19.504C1.4634 9.35616 9.764 1.35944 19.488 1.35944Z" fill="#1558FF"/>
<path d="M32.1627 4.7017L32.0613 4.499C32.0032 4.38267 31.9905 4.24884 32.0257 4.12364C32.1488 3.6863 32.7328 3.60341 32.9727 3.98922L33.6985 5.1564C33.851 5.40153 33.8916 5.69946 33.811 5.97662C33.5263 6.95438 33.0727 8.54027 32.8426 9.44411C32.5068 10.5956 32.3948 10.5557 31.803 10.8035L19.6077 15.0535C19.3105 15.157 19.0783 15.3929 18.9794 15.6917L14.9371 27.9099C14.9059 28.0044 14.8887 28.1031 14.8862 28.2026L14.8274 30.5442C14.8169 30.9609 15.0629 31.3415 15.4471 31.5032L17.4338 32.3389C17.7737 32.4818 18.1636 32.4281 18.4567 32.2043C23.1927 28.5892 30.7088 24.6247 36.0236 26.4515C36.1296 26.4879 36.2211 26.5568 36.2884 26.6464C36.5766 27.0299 36.3044 27.578 35.8247 27.5801L35.7909 27.5802C35.7237 27.5805 35.6572 27.5693 35.5934 27.5485C29.2507 25.4786 19.6589 32.679 18.6404 33.5462C18.1766 33.8661 17.9847 33.8421 17.7288 33.7541C16.5773 33.2717 14.1991 32.2747 13.8984 32.1468C13.5977 32.0188 13.4975 31.7869 13.4266 31.643C13.2533 31.2911 12.8268 30.4163 12.507 29.7318C12.1706 29.0121 12.0671 28.9561 12.2591 28.2204L15.5897 18.1546C15.8533 17.3582 15.0905 16.6048 14.2977 16.8791C11.5871 17.8169 8.1092 19.02 7.49301 19.2321C6.71253 19.5008 6.32549 19.2561 6.0536 19.0402C5.40053 18.4404 4.0336 17.1881 3.7905 16.977C3.5474 16.7659 3.52658 16.5692 3.52661 16.4252V14.9059C3.52661 14.579 3.79155 14.3141 4.11837 14.3141C4.44519 14.3141 4.71013 14.579 4.71013 14.9059V15.2733C4.71013 15.6446 4.92441 15.9825 5.26024 16.1408L6.43959 16.6969C6.67912 16.8098 6.95337 16.8244 7.20356 16.7376L30.3133 8.71725C30.5658 8.62963 30.7734 8.44577 30.8909 8.20574L32.1665 5.59991C32.3053 5.31629 32.3039 4.98414 32.1627 4.7017Z" fill="#1558FF"/>
</svg>
